<?xml version="1.0" encoding="utf-8"?>
<!-- Generator: Adobe Illustrator 16.0.0, SVG Export Plug-In . SVG Version: 6.00 Build 0)  -->
<!DOCTYPE svg PUBLIC "-//W3C//DTD SVG 1.1//EN" "http://www.w3.org/Graphics/SVG/1.1/DTD/svg11.dtd">
<svg version="1.1" id="Layer_1" xmlns="http://www.w3.org/2000/svg" xmlns:xlink="http://www.w3.org/1999/xlink" x="0px" y="0px"
	 width="140px" height="140px" viewBox="0 0 140 140" enable-background="new 0 0 140 140" xml:space="preserve">
<title>logo</title>
<desc>Created with Sketch.</desc>
<g id="_x2D_-icon">
	<polygon id="Fill-19" fill="#FAC51F" points="35,60 0,80 0,120 35,140 70,120 35,100 	"/>
	<polygon id="Fill-21" fill="#E4388E" points="105,60 105,100 70,120 105,140 140,120 140,80 	"/>
	<polygon id="Fill-23" fill="#109CD9" points="105,60 105,20 70,0 35,20 35,60 70,40 	"/>
	<polygon id="Fill-25" fill="#EC771A" points="35,60 35,100 70,120 70,80 	"/>
	<polygon id="Fill-27" fill="#9E216D" points="105,60 70,80 70,120 105,100 	"/>
	<polygon id="Fill-29" fill="#27418E" points="105,60 70,40 35,60 70,80 	"/>
</g>
</svg>
